<svg xmlns="http://www.w3.org/2000/svg" viewBox="0 0 1500 1150" font-family="Segoe UI, Helvetica, Arial, sans-serif">
  <defs>
    <marker id="arrowBlue" viewBox="0 0 10 10" refX="9" refY="5" markerWidth="7" markerHeight="7" orient="auto-start-reverse">
      <path d="M0,0 L10,5 L0,10 z" fill="#2563eb"/>
    </marker>
    <marker id="arrowTeal" viewBox="0 0 10 10" refX="9" refY="5" markerWidth="7" markerHeight="7" orient="auto-start-reverse">
      <path d="M0,0 L10,5 L0,10 z" fill="#0891b2"/>
    </marker>
    <marker id="arrowGray" viewBox="0 0 10 10" refX="9" refY="5" markerWidth="7" markerHeight="7" orient="auto-start-reverse">
      <path d="M0,0 L10,5 L0,10 z" fill="#64748b"/>
    </marker>
    <marker id="arrowPurple" viewBox="0 0 10 10" refX="9" refY="5" markerWidth="7" markerHeight="7" orient="auto-start-reverse">
      <path d="M0,0 L10,5 L0,10 z" fill="#7c3aed"/>
    </marker>
  </defs>

  <rect x="0" y="0" width="1500" height="1150" fill="#ffffff"/>

  <text x="750" y="35" text-anchor="middle" font-size="22" font-weight="700" fill="#0f172a">Homelab — Network &amp; Service Topology</text>
  <text x="750" y="56" text-anchor="middle" font-size="12" fill="#64748b">Beelink SER8 (192.168.1.239) + Synology DS423 (192.168.1.119) · updated 2026-08-15</text>

  <!-- ============ ISP chain ============ -->
  <g>
    <rect x="60" y="90" width="220" height="55" rx="8" fill="#eff6ff" stroke="#93c5fd" stroke-width="1.5"/>
    <text x="170" y="112" text-anchor="middle" font-size="13" font-weight="700" fill="#1e293b">Internet</text>
    <text x="170" y="128" text-anchor="middle" font-size="10.5" fill="#475569">ISP · 300↓/40↑ Mbps · AR · dynamic IP</text>
  </g>
  <line x1="170" y1="145" x2="170" y2="180" stroke="#2563eb" stroke-width="1.8" marker-end="url(#arrowBlue)"/>

  <g>
    <rect x="60" y="180" width="220" height="55" rx="8" fill="#eff6ff" stroke="#93c5fd" stroke-width="1.5"/>
    <text x="170" y="203" text-anchor="middle" font-size="13" font-weight="700" fill="#1e293b">I-CON IC455WDB</text>
    <text x="170" y="219" text-anchor="middle" font-size="10.5" fill="#475569">Modem — bridge mode</text>
  </g>
  <line x1="170" y1="235" x2="170" y2="270" stroke="#2563eb" stroke-width="1.8" marker-end="url(#arrowBlue)"/>

  <g>
    <rect x="60" y="270" width="220" height="65" rx="8" fill="#eff6ff" stroke="#93c5fd" stroke-width="1.5"/>
    <text x="170" y="291" text-anchor="middle" font-size="13" font-weight="700" fill="#1e293b">TP-Link Archer AX55</text>
    <text x="170" y="307" text-anchor="middle" font-size="10.5" fill="#475569">192.168.1.1 · router</text>
    <text x="170" y="321" text-anchor="middle" font-size="10.5" fill="#475569">LAN 192.168.1.0/24</text>
  </g>

  <!-- Router -> bus -->
  <line x1="170" y1="335" x2="170" y2="375" stroke="#2563eb" stroke-width="1.8"/>
  <line x1="170" y1="375" x2="1100" y2="375" stroke="#2563eb" stroke-width="1.8"/>
  <line x1="170" y1="375" x2="170" y2="420" stroke="#2563eb" stroke-width="1.8" marker-end="url(#arrowBlue)"/>
  <line x1="570" y1="375" x2="570" y2="420" stroke="#2563eb" stroke-width="1.8" marker-end="url(#arrowBlue)"/>
  <line x1="840" y1="375" x2="840" y2="430" stroke="#2563eb" stroke-width="1.8" marker-end="url(#arrowBlue)"/>
  <line x1="1100" y1="375" x2="1100" y2="430" stroke="#2563eb" stroke-width="1.8" marker-end="url(#arrowBlue)"/>

  <!-- ============ LAN row ============ -->
  <g>
    <rect x="40" y="420" width="260" height="100" rx="8" fill="#f8fafc" stroke="#94a3b8" stroke-width="1.5"/>
    <text x="170" y="443" text-anchor="middle" font-size="13" font-weight="700" fill="#1e293b">Mini PC — homelab</text>
    <text x="170" y="459" text-anchor="middle" font-size="10.5" fill="#475569">192.168.1.239 · Beelink SER8</text>
    <text x="170" y="474" text-anchor="middle" font-size="10.5" fill="#475569">Ryzen 7 8745HS · 32GB · Ubuntu 24.04</text>
    <text x="170" y="489" text-anchor="middle" font-size="10.5" fill="#475569">Docker host · 25+ containers</text>
    <text x="170" y="507" text-anchor="middle" font-size="10" fill="#0891b2">Tailscale: 100.112.136.118</text>
  </g>

  <g>
    <rect x="460" y="420" width="220" height="100" rx="8" fill="#f8fafc" stroke="#94a3b8" stroke-width="1.5"/>
    <text x="570" y="443" text-anchor="middle" font-size="13" font-weight="700" fill="#1e293b">NAS — Synology DS423</text>
    <text x="570" y="459" text-anchor="middle" font-size="10.5" fill="#475569">192.168.1.119 · DSM 7</text>
    <text x="570" y="474" text-anchor="middle" font-size="10.5" fill="#475569">SHR · Btrfs · 2×14TB (mirrored)</text>
    <text x="570" y="489" text-anchor="middle" font-size="10.5" fill="#b45309">97% full — 3rd drive planned 2027-02</text>
  </g>

  <!-- NAS <-> Mini PC mounts -->
  <line x1="460" y1="452" x2="300" y2="452" stroke="#0891b2" stroke-width="1.5" marker-end="url(#arrowTeal)"/>
  <text x="380" y="446" text-anchor="middle" font-size="9.5" fill="#0891b2">SMB → /mnt/nas</text>
  <line x1="460" y1="485" x2="300" y2="485" stroke="#0891b2" stroke-width="1.5" marker-end="url(#arrowTeal)"/>
  <text x="380" y="479" text-anchor="middle" font-size="9.5" fill="#0891b2">NFS → /mnt/nas-nfs</text>

  <g>
    <rect x="760" y="430" width="160" height="70" rx="8" fill="#f8fafc" stroke="#94a3b8" stroke-width="1.5"/>
    <text x="840" y="460" text-anchor="middle" font-size="13" font-weight="700" fill="#1e293b">Gaming PC</text>
    <text x="840" y="476" text-anchor="middle" font-size="10.5" fill="#475569">DHCP</text>
  </g>

  <g>
    <rect x="1000" y="430" width="200" height="70" rx="8" fill="#f8fafc" stroke="#94a3b8" stroke-width="1.5"/>
    <text x="1100" y="453" text-anchor="middle" font-size="13" font-weight="700" fill="#1e293b">Other devices</text>
    <text x="1100" y="469" text-anchor="middle" font-size="10.5" fill="#475569">phones, laptops · DHCP</text>
    <text x="1100" y="484" text-anchor="middle" font-size="10.5" fill="#475569">WiFi "Matias" 2.4/5GHz</text>
  </g>

  <!-- Mini PC -> docker bus -->
  <line x1="170" y1="520" x2="170" y2="560" stroke="#2563eb" stroke-width="1.8"/>
  <line x1="135" y1="560" x2="925" y2="560" stroke="#2563eb" stroke-width="1.8"/>
  <line x1="135" y1="560" x2="135" y2="595" stroke="#2563eb" stroke-width="1.8" marker-end="url(#arrowBlue)"/>
  <line x1="330" y1="560" x2="330" y2="595" stroke="#2563eb" stroke-width="1.8" marker-end="url(#arrowBlue)"/>
  <line x1="520" y1="560" x2="520" y2="595" stroke="#2563eb" stroke-width="1.8" marker-end="url(#arrowBlue)"/>
  <line x1="720" y1="560" x2="720" y2="595" stroke="#2563eb" stroke-width="1.8" marker-end="url(#arrowBlue)"/>
  <line x1="925" y1="560" x2="925" y2="595" stroke="#2563eb" stroke-width="1.8" marker-end="url(#arrowBlue)"/>

  <!-- ============ Docker service groups ============ -->
  <g>
    <rect x="40" y="595" width="190" height="115" rx="8" fill="#f0fdf4" stroke="#86efac" stroke-width="1.5"/>
    <text x="135" y="617" text-anchor="middle" font-size="12.5" font-weight="700" fill="#166534">ARR Stack</text>
    <text x="135" y="634" text-anchor="middle" font-size="10" fill="#3f6212">Jellyfin · Radarr · Sonarr</text>
    <text x="135" y="649" text-anchor="middle" font-size="10" fill="#3f6212">Lidarr · Bazarr · Prowlarr</text>
    <text x="135" y="664" text-anchor="middle" font-size="10" fill="#3f6212">qBittorrent · SABnzbd</text>
    <text x="135" y="679" text-anchor="middle" font-size="10" fill="#3f6212">Jellyseerr · Profilarr</text>
    <text x="135" y="696" text-anchor="middle" font-size="9" fill="#65a30d">→ media on /mnt/nas</text>
  </g>

  <g>
    <rect x="250" y="595" width="160" height="115" rx="8" fill="#f0fdf4" stroke="#86efac" stroke-width="1.5"/>
    <text x="330" y="617" text-anchor="middle" font-size="12.5" font-weight="700" fill="#166534">DNS Stack</text>
    <text x="330" y="637" text-anchor="middle" font-size="10" fill="#3f6212">Pi-hole :53</text>
    <text x="330" y="652" text-anchor="middle" font-size="10" fill="#3f6212">→ Unbound :5335</text>
    <text x="330" y="667" text-anchor="middle" font-size="10" fill="#3f6212">DNSSEC on</text>
    <text x="330" y="686" text-anchor="middle" font-size="9" fill="#65a30d">172.30.0.0/24</text>
  </g>

  <g>
    <rect x="430" y="595" width="180" height="115" rx="8" fill="#f0fdf4" stroke="#86efac" stroke-width="1.5"/>
    <text x="520" y="617" text-anchor="middle" font-size="12.5" font-weight="700" fill="#166534">Infra</text>
    <text x="520" y="637" text-anchor="middle" font-size="10" fill="#3f6212">cloudflared (Tunnel)</text>
    <text x="520" y="652" text-anchor="middle" font-size="10" fill="#3f6212">homepage · uptime-kuma</text>
    <text x="520" y="667" text-anchor="middle" font-size="10" fill="#3f6212">netdata · glances</text>
  </g>

  <g>
    <rect x="630" y="595" width="180" height="115" rx="8" fill="#f0fdf4" stroke="#86efac" stroke-width="1.5"/>
    <text x="720" y="617" text-anchor="middle" font-size="12.5" font-weight="700" fill="#166534">Cloud &amp; Storage</text>
    <text x="720" y="637" text-anchor="middle" font-size="10" fill="#3f6212">OpenCloud</text>
    <text x="720" y="652" text-anchor="middle" font-size="10" fill="#3f6212">(NAS-backed, /mnt/opencloud)</text>
    <text x="720" y="667" text-anchor="middle" font-size="10" fill="#3f6212">image-server</text>
  </g>

  <g>
    <rect x="830" y="595" width="190" height="115" rx="8" fill="#f0fdf4" stroke="#86efac" stroke-width="1.5"/>
    <text x="925" y="617" text-anchor="middle" font-size="12.5" font-weight="700" fill="#166534">Project Containers</text>
    <text x="925" y="637" text-anchor="middle" font-size="10" fill="#3f6212">cen-dashboard :3003</text>
    <text x="925" y="652" text-anchor="middle" font-size="10" fill="#3f6212">ricota-db (Caddy)</text>
    <text x="925" y="667" text-anchor="middle" font-size="10" fill="#3f6212">media_tracker_db :5432</text>
  </g>

  <!-- Legacy storage -->
  <path d="M 300 510 L 300 545 L 1155 545 L 1155 595" fill="none" stroke="#64748b" stroke-width="1.5" stroke-dasharray="5,4" marker-end="url(#arrowGray)"/>
  <g>
    <rect x="1050" y="595" width="210" height="100" rx="8" fill="#fff7ed" stroke="#fdba74" stroke-width="1.5"/>
    <text x="1155" y="618" text-anchor="middle" font-size="13" font-weight="700" fill="#9a3412">Legacy Storage</text>
    <text x="1155" y="636" text-anchor="middle" font-size="10.5" fill="#9a3412">Seagate 4TB USB</text>
    <text x="1155" y="651" text-anchor="middle" font-size="10.5" fill="#9a3412">/DATA/Media</text>
    <text x="1155" y="669" text-anchor="middle" font-size="10.5" font-weight="700" fill="#c2410c">99% full</text>
  </g>

  <!-- ============ Cloudflare / public side ============ -->
  <g>
    <rect x="1300" y="90" width="180" height="55" rx="8" fill="#eff6ff" stroke="#93c5fd" stroke-width="1.5"/>
    <text x="1390" y="112" text-anchor="middle" font-size="13" font-weight="700" fill="#1e293b">Public Users</text>
    <text x="1390" y="128" text-anchor="middle" font-size="10.5" fill="#475569">Internet</text>
  </g>
  <line x1="1390" y1="145" x2="1390" y2="180" stroke="#2563eb" stroke-width="1.8" marker-end="url(#arrowBlue)"/>

  <g>
    <rect x="1300" y="180" width="180" height="110" rx="8" fill="#faf5ff" stroke="#d8b4fe" stroke-width="1.5"/>
    <text x="1390" y="203" text-anchor="middle" font-size="13" font-weight="700" fill="#6b21a8">Cloudflare</text>
    <text x="1390" y="221" text-anchor="middle" font-size="10.5" fill="#7e22ce">DNS + Tunnel + Access</text>
    <text x="1390" y="236" text-anchor="middle" font-size="10.5" fill="#7e22ce">matiasmassetti.com</text>
    <text x="1390" y="251" text-anchor="middle" font-size="10.5" fill="#7e22ce">17 subdomains</text>
    <text x="1390" y="269" text-anchor="middle" font-size="9" fill="#a855f7">15/17 behind Access OTP</text>
  </g>

  <path d="M 1390 290 L 1390 530 L 520 530 L 520 595" fill="none" stroke="#7c3aed" stroke-width="1.6" stroke-dasharray="6,4" marker-end="url(#arrowPurple)"/>
  <text x="960" y="524" text-anchor="middle" font-size="9.5" fill="#7c3aed">Tunnel — no ports forwarded to router</text>

  <!-- ============ Tailscale overlay ============ -->
  <rect x="1150" y="780" width="330" height="280" rx="10" fill="#f0fdfa" stroke="#5eead4" stroke-width="1.5" stroke-dasharray="6,4"/>
  <text x="1315" y="805" text-anchor="middle" font-size="13" font-weight="700" fill="#0f766e">Tailscale VPN</text>
  <text x="1315" y="820" text-anchor="middle" font-size="10" fill="#0f766e">tail076e1b.ts.net</text>

  <line x1="1250" y1="865" x2="1250" y2="995" stroke="#059669" stroke-width="1.5" stroke-dasharray="4,3"/>

  <g>
    <rect x="1180" y="840" width="140" height="50" rx="7" fill="#ffffff" stroke="#2dd4bf" stroke-width="1.5"/>
    <text x="1250" y="860" text-anchor="middle" font-size="10.5" font-weight="700" fill="#0f172a">homelab (mini PC)</text>
    <text x="1250" y="874" text-anchor="middle" font-size="9.5" fill="#475569">100.112.136.118</text>
  </g>
  <g>
    <rect x="1180" y="905" width="140" height="50" rx="7" fill="#ffffff" stroke="#2dd4bf" stroke-width="1.5"/>
    <text x="1250" y="925" text-anchor="middle" font-size="10.5" font-weight="700" fill="#0f172a">MacBook Pro</text>
    <text x="1250" y="939" text-anchor="middle" font-size="9.5" fill="#475569">100.102.177.38</text>
  </g>
  <g>
    <rect x="1180" y="970" width="140" height="50" rx="7" fill="#ffffff" stroke="#2dd4bf" stroke-width="1.5"/>
    <text x="1250" y="988" text-anchor="middle" font-size="10.5" font-weight="700" fill="#0f172a">Samsung S23 Ultra</text>
    <text x="1250" y="1002" text-anchor="middle" font-size="9" fill="#475569">100.111.162.37 · intermittent</text>
  </g>

  <text x="1315" y="1042" text-anchor="middle" font-size="9" fill="#0f766e">advertises 192.168.1.0/24 subnet route · ssh matias@homelab</text>

  <!-- ============ Legend ============ -->
  <line x1="60" y1="1090" x2="95" y2="1090" stroke="#2563eb" stroke-width="1.8"/>
  <text x="102" y="1094" font-size="10.5" fill="#334155">LAN / Docker traffic</text>

  <line x1="290" y1="1090" x2="325" y2="1090" stroke="#0891b2" stroke-width="1.5"/>
  <text x="332" y="1094" font-size="10.5" fill="#334155">SMB/NFS mounts</text>

  <line x1="520" y1="1090" x2="555" y2="1090" stroke="#64748b" stroke-width="1.5" stroke-dasharray="5,4"/>
  <text x="562" y="1094" font-size="10.5" fill="#334155">Local / USB</text>

  <line x1="730" y1="1090" x2="765" y2="1090" stroke="#7c3aed" stroke-width="1.6" stroke-dasharray="6,4"/>
  <text x="772" y="1094" font-size="10.5" fill="#334155">Cloudflare Tunnel</text>

  <line x1="950" y1="1090" x2="985" y2="1090" stroke="#059669" stroke-width="1.5" stroke-dasharray="4,3"/>
  <text x="992" y="1094" font-size="10.5" fill="#334155">Tailscale VPN</text>

  <text x="750" y="1128" text-anchor="middle" font-size="9.5" fill="#94a3b8">Source: ~/homelab/network/network.md, hardware/*.md, CLAUDE.md · edit freely (plain SVG, or reopen in draw.io/Inkscape)</text>
</svg>
